<svg xmlns="http://www.w3.org/2000/svg" width="166.559" height="29.22" viewBox="0 0 166.559 29.22"><defs><style>.a{fill:#fff;}.b{fill:#ee3c24;}</style></defs><g transform="translate(3418.005 -155)"><path class="a" d="M-3264.562,155.075a14.627,14.627,0,0,0-16.03,16.03,14.666,14.666,0,0,0,13.037,13.04,14.627,14.627,0,0,0,16.034-16.032A14.667,14.667,0,0,0-3264.562,155.075Zm-.336,23.344a8.9,8.9,0,0,1-9.968-9.967,8.908,8.908,0,0,1,7.653-7.651,8.894,8.894,0,0,1,9.966,9.966A8.908,8.908,0,0,1-3264.9,178.419Z"/><path class="a" d="M-3283.53,165.3c0-6.21-5.273-9.038-10.172-9.038h-10.476a.353.353,0,0,0-.353.352v26.15a.353.353,0,0,0,.353.353h5.022a.353.353,0,0,0,.353-.353V174.7a.352.352,0,0,1,.352-.353h4.493a.356.356,0,0,1,.309.182l4.651,8.414a.353.353,0,0,0,.309.182h5.637a.352.352,0,0,0,.308-.523l-5.145-9.328a.351.351,0,0,1,.134-.473A8.3,8.3,0,0,0-3283.53,165.3Zm-15.273-2.958a.352.352,0,0,1,.352-.353h4.749c1.043,0,4.445.239,4.445,3.311s-3.4,3.312-4.445,3.312h-4.749a.352.352,0,0,1-.352-.353Z"/><path class="a" d="M-3318.657,156.267h-10.476a.353.353,0,0,0-.353.352v26.15a.353.353,0,0,0,.353.353h5.022a.352.352,0,0,0,.352-.353V174.7a.353.353,0,0,1,.353-.353h4.749c4.9,0,10.172-2.828,10.172-9.039S-3313.758,156.267-3318.657,156.267Zm0,12.35h-4.749a.353.353,0,0,1-.353-.353v-5.917a.353.353,0,0,1,.353-.353h4.749c1.043,0,4.444.239,4.444,3.311S-3317.614,168.617-3318.657,168.617Z"/><path class="a" d="M-3396.133,156.235h-5.9a.35.35,0,0,0-.259.114l-9.374,10.227a.352.352,0,0,1-.612-.238v-9.751a.353.353,0,0,0-.353-.352h-5.022a.353.353,0,0,0-.353.352v26.174a.353.353,0,0,0,.353.353h5.022a.353.353,0,0,0,.353-.353v-7.888a.355.355,0,0,1,.092-.238l2.112-2.308a.352.352,0,0,1,.542.027l7.95,10.626a.354.354,0,0,0,.282.142h5.975a.353.353,0,0,0,.282-.564l-10.8-14.432a.354.354,0,0,1,.023-.45l9.944-10.851A.352.352,0,0,0-3396.133,156.235Z"/><path class="a" d="M-3344.828,156.235h-5.618a.353.353,0,0,0-.3.17l-6.376,10.545a.352.352,0,0,1-.6,0L-3364.1,156.4a.351.351,0,0,0-.3-.17h-5.618a.353.353,0,0,0-.3.535l9.985,16.513a.353.353,0,0,1,.051.182v9.3a.352.352,0,0,0,.352.353h5.022a.353.353,0,0,0,.353-.353v-9.295a.347.347,0,0,1,.051-.183l9.985-16.513A.353.353,0,0,0-3344.828,156.235Z"/><path class="a" d="M-3345.7,173.45h9.417a.353.353,0,0,0,.353-.352v-5.022a.353.353,0,0,0-.353-.353h-6.287c-.2,0-.289.142-.438.353l-3.045,5.022A.353.353,0,0,0-3345.7,173.45Z"/><path class="a" d="M-3391.25,183.114h18.049a.353.353,0,0,0,.353-.353v-5.022a.353.353,0,0,0-.353-.353h-12.322a.351.351,0,0,1-.352-.352v-4.148a.352.352,0,0,1,.352-.352h8.942a.353.353,0,0,0,.352-.353v-5.022a.352.352,0,0,0-.352-.352h-8.942a.352.352,0,0,1-.352-.353v-4.139a.352.352,0,0,1,.352-.353h12.322a.353.353,0,0,0,.353-.353v-5.022a.353.353,0,0,0-.353-.352h-18.049a.353.353,0,0,0-.353.352v26.174A.353.353,0,0,0-3391.25,183.114Z"/><circle class="b" cx="4.719" cy="4.719" r="4.719" transform="translate(-3270.776 164.891)"/></g></svg>